PathFileType	4	(X/Y/Z)	D:\TRACE\v60_Jaco2_6-2-23\v60_baseline_3-platform.trc
DataRate	CameraRate	NumFrames	NumMarkers	Units	OrigDataRate	OrigDataStartFrame	OrigNumFrames
100.00	100.00	      49	5	mm	100.00	4063	      6500
Frame#	Time	Left_Front			Right_Front			Left_Aft			Right_Aft			Post			
		X1	Y1	Z1	X2	Y2	Z2	X3	Y3	Z3	X4	Y4	Z4	X5	Y5	Z5	

4063	40.620	-800.46753	9.07567	-638.88831	769.12207	10.05225	-644.57843	-708.58350	7.76443	496.11938	733.73920	7.15811	505.71826	-13.99730	1308.02271	-962.19635	
4064	40.630	-800.57050	9.03192	-638.79395	769.04712	10.01379	-644.67645	-708.62457	7.81280	496.11005	733.64258	7.08854	505.70340	-13.97865	1308.01514	-962.19299	
4065	40.640	-800.59705	8.93957	-638.77362	769.04352	9.91753	-644.67865	-708.62628	7.73072	496.11719	733.59216	7.03536	505.74329	-13.87816	1307.91321	-962.19379	
4066	40.650	-800.59387	8.87278	-638.76520	768.90314	9.82411	-644.59479	-708.59497	7.67308	496.19760	733.53186	7.00038	505.73444	-13.85489	1307.88354	-962.20276	
4067	40.660	-800.47510	8.90966	-638.83417	768.88300	9.71479	-644.73590	-708.54865	7.65067	496.12650	733.59705	7.05467	505.76471	-13.91220	1307.94873	-962.27502	
4068	40.670	-800.46973	8.99899	-638.87262	768.90417	9.79439	-644.62866	-708.59424	7.69138	496.09683	733.69580	7.13100	505.75485	-13.95656	1308.02722	-962.30261	
4069	40.680	-800.51056	9.08176	-638.82318	768.92822	9.87845	-644.64215	-708.60901	7.75262	496.11548	733.62286	7.06908	505.73914	-13.90029	1308.08936	-962.33362	
4070	40.690	-800.59357	9.12639	-638.69238	768.84650	9.77773	-644.76007	-708.63513	7.72328	496.13040	733.52960	6.98817	505.72806	-14.06953	1308.09497	-962.21741	
4071	40.700	-800.59039	8.98389	-638.71185	768.88086	9.76853	-644.71179	-708.61829	7.65021	496.17233	733.54419	6.95734	505.76663	-13.95720	1308.01318	-962.01184	
4072	40.710	-800.55731	8.84991	-638.84509	768.95538	9.86550	-644.65503	-708.61176	7.63630	496.12723	733.58020	6.99375	505.75296	-13.98423	1307.92957	-961.76941	
4073	40.720	-800.45984	9.03055	-638.85779	768.96698	9.98108	-644.71771	-708.56421	7.68252	496.08304	733.73065	7.10848	505.72214	-14.00229	1307.88269	-961.68420	
4074	40.730	-800.44690	9.13259	-638.87756	768.93256	9.94108	-644.78009	-708.62885	7.85043	496.11957	733.76184	7.20380	505.72485	-14.09835	1307.92432	-961.84857	
4075	40.740	-800.58459	9.08528	-638.79443	768.87781	9.66836	-644.72650	-708.64771	7.92976	496.14194	733.65118	7.11307	505.69904	-14.02833	1307.97766	-962.10779	
4076	40.750	-800.67090	8.76238	-638.75842	768.86621	9.65826	-644.69977	-708.64911	7.83772	496.17661	733.62872	7.03225	505.76666	-13.88298	1308.01514	-962.31195	
4077	40.760	-800.62451	8.55268	-638.90808	768.87354	9.73967	-644.73389	-708.67017	7.77067	496.12057	733.63458	6.96110	505.77820	-13.76538	1308.10840	-962.46106	
4078	40.770	-800.51025	8.73499	-638.93323	768.84644	9.76910	-644.75305	-708.59814	7.67516	496.10168	733.72430	7.09643	505.80673	-13.82051	1308.24268	-962.53296	
4079	40.780	-800.42987	9.12800	-638.82074	768.95636	9.84655	-644.60242	-708.54193	7.72821	496.11606	733.78918	7.02065	505.77484	-13.87935	1308.37451	-962.56573	
4080	40.790	-800.45239	9.12868	-638.74261	768.91193	9.93433	-644.73608	-708.55920	7.76757	496.14975	733.80713	7.08806	505.79141	-13.91102	1308.37659	-962.53375	
4081	40.800	-800.59009	8.99629	-638.67957	768.93347	9.93136	-644.70728	-708.58228	7.78712	496.16370	733.70251	7.05582	505.79968	-13.90242	1308.20862	-962.43073	
4082	40.810	-800.65228	8.76514	-638.77466	769.34070	10.21901	-644.38776	-708.63086	7.84264	496.17136	733.60065	7.00805	505.77017	-13.99270	1308.01184	-961.90839	
4083	40.820	-800.56641	8.57869	-638.98956	769.38849	10.11964	-644.40607	-708.68835	7.83365	496.10611	733.59485	7.02680	505.73257	-13.92037	1307.88330	-961.60846	
4084	40.830	-800.55878	8.76226	-638.94116	769.32416	10.18445	-644.44867	-708.65588	7.81971	496.10117	733.66553	7.10575	505.75415	-13.99689	1307.86707	-961.54675	
4085	40.840	-800.47729	8.93587	-638.85553	769.41046	10.20804	-644.40912	-708.61523	7.86229	496.15103	733.78967	7.15289	505.78040	-13.96804	1307.87329	-961.60986	
4086	40.850	-800.58746	8.93077	-638.68115	769.36243	10.23303	-644.36481	-708.55664	7.83459	496.21130	733.63861	7.06592	505.80173	-14.02003	1307.95154	-961.96368	
4087	40.860	-800.68701	8.88442	-638.66718	769.36591	10.27716	-644.42633	-708.56592	7.79528	496.18991	733.57288	6.94974	505.78561	-13.88812	1308.02332	-962.28973	
4088	40.870	-800.63501	8.84476	-638.75269	769.29010	10.29705	-644.48016	-708.48346	7.51410	496.21106	733.56927	6.93520	505.77805	-13.83394	1308.06812	-962.41669	
4089	40.880	-800.53296	8.85238	-638.88831	769.39124	10.21417	-644.40833	-708.60590	7.74553	496.14087	733.53943	6.91340	505.73871	-13.74280	1308.19507	-962.54419	
4090	40.890	-800.47900	8.95038	-638.90314	769.36462	10.22663	-644.41705	-708.58502	7.75188	496.14395	733.63049	7.00119	505.76025	-13.78978	1308.23120	-962.51489	
4091	40.900	-800.51959	8.94027	-638.83374	769.33014	10.24368	-644.45221	-708.63635	7.90386	496.15048	733.62854	7.01008	505.73328	-13.88291	1308.14575	-962.45844	
4092	40.910	-800.57831	8.89247	-638.72595	769.34387	10.30786	-644.41907	-708.69128	8.02526	496.13980	733.57562	7.00415	505.72858	-13.95261	1308.06641	-962.29321	
4093	40.920	-800.64246	8.85698	-638.76813	769.38513	10.23684	-644.45477	-708.70471	7.97575	496.10284	733.61615	7.00408	505.72498	-13.92936	1307.97961	-962.08258	
4094	40.930	-800.58826	8.77164	-638.90527	769.30890	10.22706	-644.41638	-708.68793	7.95061	496.09857	733.62732	7.01565	505.71182	-13.96074	1307.92603	-961.86432	
4095	40.940	-800.50397	8.73129	-638.96191	769.35101	10.21564	-644.41675	-708.61243	7.77673	496.10776	733.65320	7.06123	505.71262	-14.03870	1307.95264	-961.81018	
4096	40.950	-800.47180	8.80496	-638.93237	769.28516	10.22232	-644.45526	-708.62286	7.80180	496.03778	733.67108	7.09135	505.69846	-14.03511	1308.03442	-961.89008	
4097	40.960	-800.55774	8.97434	-638.74524	769.30463	10.23764	-644.47632	-708.58539	7.78610	496.05225	733.61945	7.03620	505.72443	-13.99719	1308.08960	-962.08636	
4098	40.970	-800.59064	8.98468	-638.74146	769.34698	10.35631	-644.43719	-708.59491	7.84127	496.16086	733.58411	6.95306	505.71725	-14.02533	1308.19214	-962.27533	
4099	40.980	-800.59540	9.00317	-638.75873	769.30786	10.38157	-644.44385	-708.63062	7.78811	496.16986	733.55835	6.93174	505.73831	-13.88259	1308.21350	-962.30554	
4100	40.990	-800.51440	8.79163	-638.89099	769.31274	10.28381	-644.50067	-708.63239	7.75756	496.14774	733.58905	6.95562	505.71964	-13.90292	1308.15515	-962.18427	
4101	41.000	-800.49652	8.87102	-638.90674	769.35089	10.21001	-644.43567	-708.55121	7.70907	496.13202	733.66119	6.98578	505.72168	-13.98234	1308.04175	-962.11597	
4102	41.010	-800.54932	8.82208	-638.83337	769.32245	10.21958	-644.45813	-708.60425	7.81901	496.14819	733.61066	7.01402	505.72302	-14.01863	1307.95605	-962.00385	
4103	41.020	-800.64502	8.90292	-638.74426	769.34918	10.23531	-644.50439	-708.61652	7.79858	496.16827	733.52759	6.95734	505.71277	-13.86862	1307.87512	-961.92975	
4104	41.030	-800.67261	8.87792	-638.73645	769.32178	10.23966	-644.51758	-708.62115	7.82233	496.15723	733.50800	6.96234	505.72324	-13.93593	1307.88110	-961.95563	
4105	41.040	-800.64111	8.81197	-638.76819	769.38684	10.25583	-644.44818	-708.64020	7.81089	496.14316	733.52106	6.94673	505.73511	-13.83512	1307.86548	-962.01862	
4106	41.050	-800.53632	8.75239	-638.89459	769.34003	10.20058	-644.50092	-708.62469	7.81608	496.14563	733.59949	7.01983	505.72849	-13.89986	1307.95337	-962.19385	
4107	41.060	-800.48566	8.80681	-638.89587	769.32410	10.21152	-644.41687	-708.59698	7.77008	496.14572	733.65137	7.01106	505.73236	-13.92371	1308.00452	-962.29352	
4108	41.070	-800.54559	8.92605	-638.79651	769.31293	10.26397	-644.45654	-708.63800	7.84655	496.16272	733.64221	6.99734	505.73447	-13.86342	1308.07617	-962.41534	
4109	41.080	-800.63031	8.97054	-638.71497	769.32892	10.32759	-644.45386	-708.58813	7.82365	496.15317	733.59515	6.93665	505.72290	-13.88480	1308.14026	-962.44269	
4110	41.090	-800.59613	8.91474	-638.76550	769.33765	10.31505	-644.43463	-708.60327	7.77396	496.17694	733.63550	6.97025	505.72610	-13.89706	1308.16431	-962.38403	
4111	41.100	-800.49188	8.88534	-638.86475	769.32971	10.28992	-644.45551	-708.62738	7.81308	496.15326	733.66852	7.04715	505.72604	-14.00991	1308.13525	-962.20508	
